<?xml version="1.0" encoding="UTF-8"?>
<svg width="100px" height="100px" viewBox="0 0 100 100" version="1.1" xmlns="http://www.w3.org/2000/svg" xmlns:xlink="http://www.w3.org/1999/xlink">
    <!-- Generator: Sketch 48.2 (47327) - http://www.bohemiancoding.com/sketch -->
    <title>Artboard</title>
    <desc>Created with Sketch.</desc>
    <defs>
        <path d="M24.7575758,46.4587621 C19.2062539,43.8216167 15.1981439,38.4632799 14.4570191,32.1075251 C12.5477196,31.8498171 11.0757576,30.2136892 11.0757576,28.2337662 L11.0757576,23.8376623 C11.0757576,21.9007102 12.4845201,20.2927922 14.3333333,19.9826201 L14.3333333,18.2424242 C14.3333333,8.16741153 22.5007449,1.85074981e-15 32.5757576,0 C42.6507703,-1.85074981e-15 50.8181818,8.16741153 50.8181818,18.2424242 L50.8181818,19.9826201 C52.6669951,20.2927922 54.0757576,21.9007102 54.0757576,23.8376623 L54.0757576,28.2337662 C54.0757576,30.2136892 52.6037955,31.8498171 50.694496,32.1075251 C49.9533713,38.4632799 45.9452613,43.8216167 40.3939394,46.4587621 L40.3939394,52.4236817 C54.1793891,53.0900897 65.1515152,64.4779919 65.1515152,78.4285714 L0,78.4285714 C-1.70845326e-15,64.4779919 10.9721261,53.0900897 24.7575605,52.4236825 L24.7575758,46.4587621 Z" id="path-1"></path>
        <path d="M43.6510701,0.366413307 C55.850699,2.39486035 65.1515152,12.9976328 65.1515152,25.7727273 L0,25.7727273 C-1.57843892e-15,12.8837954 9.46731169,2.20607266 21.8272596,0.314234562 C21.8262595,0.352344591 21.8257576,0.390530487 21.8257576,0.428789808 C21.8257576,4.20341019 26.7116198,7.26334459 32.7386364,7.26334459 C38.7656529,7.26334459 43.6515152,4.20341019 43.6515152,0.428789808 C43.6515152,0.407975779 43.6513666,0.387183481 43.6510701,0.366413307 Z" id="path-3"></path>
        <rect id="path-5" x="0" y="0" width="86" height="90"></rect>
        <path d="M58.9212339,12.8315598 C58.0186013,11.9251282 56.9705804,11.1557667 55.9512215,10.3842483 C55.7263018,10.2141778 55.497772,10.0482054 55.2778845,9.87166418 C55.2278902,9.83154609 54.715804,9.47113032 54.6545418,9.33848178 C54.507075,9.01937039 54.5925139,9.26784374 54.6128617,8.88704539 C54.6385699,8.40552043 55.6376904,7.04549551 54.8921516,6.73360969 C54.5641801,6.5964317 53.9791263,6.96148478 53.6645013,7.08205474 C53.0491445,7.31801815 52.4262394,7.51925568 51.7900973,7.69277722 C52.0948767,7.09596666 52.6759922,5.90126711 51.5837751,6.22102557 C50.7328871,6.47014598 49.9399795,7.11063349 49.0849345,7.41195057 C49.3678345,6.9562004 50.4992157,5.54397882 49.476903,5.46503677 C49.1587773,5.44044826 48.233062,6.02690576 47.8905408,6.15200519 C46.864618,6.52676426 45.8167066,6.76898264 44.7395862,6.95975927 C41.0770924,7.60844295 36.7942096,7.42348991 33.4056452,9.06218459 C30.7932508,10.3254731 28.2136755,12.2856518 26.7045473,14.7817089 C25.2500081,17.1876082 24.7059781,19.8206277 24.4015269,22.5775603 C24.1781387,24.6008279 24.1599789,26.6922531 24.2644528,28.7228541 C24.2985846,29.3881458 24.3747247,32.4549152 25.3582015,31.5261598 C25.8481895,31.0633997 25.8445794,29.1947809 25.967979,28.5622739 C26.2135747,27.3038383 26.4499811,26.0397949 26.8594531,24.8215852 C27.5810341,22.6748359 28.4322502,20.3881046 30.2298576,18.9095587 C31.3834463,17.9608521 32.1935292,16.678583 33.2974519,15.7214645 C33.7933473,15.291597 33.414944,15.3363524 34.2122275,15.392755 C34.747834,15.4306083 35.2858472,15.4450595 35.8225476,15.4588635 C37.0640914,15.4905698 38.3076042,15.4824814 39.5494761,15.4867952 C42.0505046,15.4956385 44.5398277,15.5303643 47.0384495,15.401706 C48.1488265,15.3445485 49.2622666,15.3135972 50.3696899,15.2126549 C50.9883286,15.1562523 52.0860155,14.7666107 52.5952574,15.064369 C53.0612876,15.3367837 53.5452588,16.2262838 53.8799035,16.590582 C54.6705138,17.4515033 55.6131856,18.1090302 56.5376975,18.8149793 C58.465487,20.2869466 59.4387899,22.1357221 60.0242813,24.4360417 C60.6075848,26.7278417 60.4440367,28.8540482 61.1660552,31.1093968 C61.2930649,31.5059404 61.6290223,32.1894578 62.0431984,31.5767941 C62.1201043,31.4630184 62.1001941,30.8375446 62.1001941,30.4776447 C62.1001941,29.0248693 62.4745498,27.9348355 62.4698457,26.4725742 C62.451467,22.0265836 62.3052036,16.2291956 58.9212339,12.8315598 Z" id="path-7"></path>
        <filter x="-2.4%" y="-7.7%" width="106.9%" height="131.7%" filterUnits="objectBoundingBox" id="filter-9">
            <feOffset dx="0" dy="2" in="SourceAlpha" result="shadowOffsetOuter1"></feOffset>
            <feColorMatrix values="0 0 0 0 0   0 0 0 0 0   0 0 0 0 0  0 0 0 0.2 0" type="matrix" in="shadowOffsetOuter1" result="shadowMatrixOuter1"></feColorMatrix>
            <feMerge>
                <feMergeNode in="shadowMatrixOuter1"></feMergeNode>
                <feMergeNode in="SourceGraphic"></feMergeNode>
            </feMerge>
        </filter>
    </defs>
    <g id="Page-1" stroke="none" stroke-width="1" fill="none" fill-rule="evenodd">
        <g id="Artboard">
            <g id="Group" transform="translate(2.000000, 2.000000)">
                <circle id="Oval" fill="#D8D8D8" cx="48" cy="48" r="48"></circle>
                <g id="Avataaar/Default" transform="translate(5.000000, 6.000000)">
                    <g id="Body" transform="translate(10.424242, 11.571429)">
                        <mask id="mask-2" fill="white">
                            <use xlink:href="#path-1"></use>
                        </mask>
                        <use fill="#D0C6AC" xlink:href="#path-1"></use>
                        <g id="Skin/ðŸ‘¶ðŸ½-03-Brown" mask="url(#mask-2)" fill="#D08B5B">
                            <g transform="translate(-10.424242, 0.000000)" id="Color">
                                <rect x="0" y="0" width="86" height="78"></rect>
                            </g>
                        </g>
                        <path d="M50.8181818,29.9718615 L50.8181818,32.54329 C50.8181818,42.6183028 42.6507703,50.7857143 32.5757576,50.7857143 C22.5007449,50.7857143 14.3333333,42.6183028 14.3333333,32.54329 L14.3333333,29.9718615 C14.3333333,40.0468742 22.5007449,48.2142857 32.5757576,48.2142857 C42.6507703,48.2142857 50.8181818,40.0468742 50.8181818,29.9718615 Z" id="Neck-Shadow" fill-opacity="0.100000001" fill="#000000" mask="url(#mask-2)"></path>
                    </g>
                    <g id="Clothing/Blazer-+-Shirt" transform="translate(0.000000, 54.642857)">
                        <g id="Shirt" transform="translate(10.424242, 9.227273)">
                            <mask id="mask-4" fill="white">
                                <use xlink:href="#path-3"></use>
                            </mask>
                            <use id="Clothes" fill="#E6E6E6" xlink:href="#path-3"></use>
                            <g id="Color/Palette/Gray-01" mask="url(#mask-4)" fill="#E6E6E6">
                                <g transform="translate(-10.424242, -9.227273)" id="ðŸ–Color">
                                    <rect x="0" y="0" width="86" height="35"></rect>
                                </g>
                            </g>
                            <g id="Shadowy" opacity="0.599999964" mask="url(#mask-4)" fill="#000000" fill-opacity="0.16">
                                <g transform="translate(19.545455, -7.954545)" id="Hola-ðŸ‘‹ðŸ¼">
                                    <ellipse cx="13.1931818" cy="8.86060799" rx="12.9114356" ry="8.56349048"></ellipse>
                                </g>
                            </g>
                        </g>
                        <g id="Blazer" transform="translate(10.424242, 8.909091)">
                            <path d="M43.1356141,0.604258146 C55.5877442,2.41579558 65.1515152,13.1364831 65.1515152,26.0909091 L42.8821811,26.0909091 C43.9900616,22.2472709 44.6287879,17.7255049 44.6287879,12.8863636 C44.6287879,8.42909745 44.0868926,4.24109235 43.1356141,0.604258146 Z M22.5950917,26.0909091 L0,26.0909091 C-1.60078638e-15,13.0194963 9.73728495,2.22234826 22.3539551,0.557364691 C21.3950513,4.20507365 20.8484848,8.40992757 20.8484848,12.8863636 C20.8484848,17.7255049 21.4872111,22.2472709 22.5950917,26.0909091 Z" id="Saco" fill="#3A4C5A"></path>
                            <path d="M48.5378788,18.4545455 L50.039652,17.3544093 C51.4677177,16.3082681 53.4135705,16.325226 54.8231867,17.3960972 L55.3787879,17.8181818 L48.5378788,18.4545455 Z" id="Pocket-hanky" fill="#E6E6E6"></path>
                            <path d="M22.4772727,0 C21.1742424,6.15151515 21.7171717,14.8484848 24.1060606,26.0909091 L18.8939394,26.0909091 L14.3333333,14.6363636 L16.2878788,11.7727273 L14.3333333,9.86363636 L20.5227273,0.318181818 C21.1832526,0.117485021 21.8347677,0.0114244148 22.4772727,0 Z" id="Wing" fill="#2F4351"></path>
                            <path d="M49.1893939,0 C47.8863636,6.15151515 48.4292929,14.8484848 50.8181818,26.0909091 L45.6060606,26.0909091 L41.0454545,14.6363636 L43,11.7727273 L41.0454545,9.86363636 L47.2348485,0.318181818 C47.8953738,0.117485021 48.5468889,0.0114244148 49.1893939,0 Z" id="Wing" fill="#2F4351" transform="translate(45.931818, 13.045455) scale(-1, 1) translate(-45.931818, -13.045455) "></path>
                        </g>
                    </g>
                    <g id="Face" transform="translate(24.757576, 26.357143)" fill="#000000">
                        <g id="Mouth/Default" transform="translate(0.651515, 16.714286)" fill-opacity="0.699999988">
                            <path d="M12.962963,4.77272727 C12.962963,7.23290479 14.9942636,9.22727273 17.5,9.22727273 C20.0057364,9.22727273 22.037037,7.23290479 22.037037,4.77272727" id="Mouth"></path>
                        </g>
                        <g id="Nose/Default" transform="translate(9.121212, 12.857143)" fill-opacity="0.16">
                            <path d="M5.14285714,2.66666667 C5.14285714,4.139426 6.86975882,5.33333333 9,5.33333333 C11.1302412,5.33333333 12.8571429,4.139426 12.8571429,2.66666667" id="Nose"></path>
                        </g>
                        <g id="Eyes/Default-ðŸ˜€" transform="translate(0.000000, 2.571429)" fill-opacity="0.599999964">
                            <ellipse id="Eye" cx="9.64285714" cy="7" rx="1.92857143" ry="1.90909091"></ellipse>
                            <ellipse id="Eye" cx="26.3571429" cy="7" rx="1.92857143" ry="1.90909091"></ellipse>
                        </g>
                        <g id="Eyebrow/Outline/Default" fill-opacity="0.599999964">
                            <g id="I-Browse" transform="translate(3.857143, 2.000000)">
                                <path d="M1.16686458,3.71952558 C2.42522839,1.88328891 5.87504562,0.853612403 8.84668718,1.61039349 C9.19148297,1.69820183 9.53963567,1.47952004 9.624308,1.12195404 C9.70898034,0.764388034 9.49810861,0.403340786 9.15331282,0.31553244 C5.70225963,-0.563339297 1.70746059,0.62899944 0.118849705,2.94714109 C-0.0868209512,3.24726097 -0.0189438402,3.66346037 0.270457476,3.87674845 C0.559858793,4.09003654 0.961193924,4.01964546 1.16686458,3.71952558 Z" id="Eyebrow" fill-rule="nonzero"></path>
                                <path d="M19.8097217,3.71952558 C21.0680855,1.88328891 24.5179028,0.853612403 27.4895443,1.61039349 C27.8343401,1.69820183 28.1824928,1.47952004 28.2671651,1.12195404 C28.3518375,0.764388034 28.1409658,0.403340786 27.79617,0.31553244 C24.3451168,-0.563339297 20.3503177,0.62899944 18.7617068,2.94714109 C18.5560362,3.24726097 18.6239133,3.66346037 18.9133146,3.87674845 C19.2027159,4.09003654 19.6040511,4.01964546 19.8097217,3.71952558 Z" id="Eyebrow" fill-rule="nonzero" transform="translate(23.464335, 2.013066) scale(-1, 1) translate(-23.464335, -2.013066) "></path>
                            </g>
                        </g>
                    </g>
                    <g id="Top">
                        <mask id="mask-6" fill="white">
                            <use xlink:href="#path-5"></use>
                        </mask>
                        <g id="Mask"></g>
                        <g id="Top/Short-Hair/Short-Flat" mask="url(#mask-6)">
                            <g transform="translate(-0.325758, 0.000000)">
                                <g id="Facial-Hair/-Blank" stroke="none" fill="none" transform="translate(16.026316, 23.142857)"></g>
                                <mask id="mask-8" fill="white">
                                    <use xlink:href="#path-7"></use>
                                </mask>
                                <use id="Short-Hair" stroke="none" fill="#1F3140" fill-rule="evenodd" xlink:href="#path-7"></use>
                                <g id="Color/Hair/Brown" stroke="none" fill="none" mask="url(#mask-8)" fill-rule="evenodd">
                                    <g transform="translate(0.327068, 0.000000)" fill="#724133" id="Color">
                                        <rect x="0" y="0" width="86" height="90"></rect>
                                    </g>
                                </g>
                                <g id="Top/_Resources/Prescription-02" stroke="none" fill="none" mask="url(#mask-8)" fill-rule="evenodd" stroke-width="1">
                                    <g transform="translate(20.278195, 27.321429)" id="Wayfarers">
                                        <g filter="url(#filter-9)" transform="translate(1.943662, 2.203704)">
                                            <path d="M11.0140845,12.9074074 L10.1206964,12.9074074 C5.60899136,12.9074074 2.91549296,10.4946442 2.91549296,6.4537037 C2.91549296,3.18812963 3.50410046,0 10.5378648,0 L11.4903042,0 C18.5240686,0 19.1126761,3.18812963 19.1126761,6.4537037 C19.1126761,10.2530913 15.7829482,12.9074074 11.0140845,12.9074074 Z M10.4910323,1.88888889 C4.21126761,1.88888889 4.21126761,4.04254204 4.21126761,6.76900643 C4.21126761,8.99487088 5.22075835,11.6481481 10.0328386,11.6481481 L11.0140845,11.6481481 C15.0196182,11.6481481 17.8169014,9.64184507 17.8169014,6.76900643 C17.8169014,4.04254204 17.8169014,1.88888889 11.5371367,1.88888889 L10.4910323,1.88888889 Z" id="Left" fill="#252C2F" fill-rule="nonzero"></path>
                                            <path d="M31.0985915,12.9074074 L30.2052035,12.9074074 C25.6934984,12.9074074 23,10.4946442 23,6.4537037 C23,3.18812963 23.5886075,0 30.6223719,0 L31.5748112,0 C38.6085756,0 39.1971831,3.18812963 39.1971831,6.4537037 C39.1971831,10.2530913 35.8674552,12.9074074 31.0985915,12.9074074 Z M30.5755394,1.88888889 C24.2957746,1.88888889 24.2957746,4.04254204 24.2957746,6.76900643 C24.2957746,8.99487088 25.3063115,11.6481481 30.1173456,11.6481481 L31.0985915,11.6481481 C35.1041253,11.6481481 37.9014085,9.64184507 37.9014085,6.76900643 C37.9014085,4.04254204 37.9014085,1.88888889 31.6216437,1.88888889 L30.5755394,1.88888889 Z" id="Right" fill="#252C2F" fill-rule="nonzero"></path>
                                            <path d="M0.957106274,1.81697398 C1.18106914,1.60438802 3.6312612,0 10.528169,0 C16.3110051,0 17.535144,0.583248646 19.3881018,1.46448102 L19.5237357,1.52953061 C19.652561,1.57376523 20.3113469,1.79124272 21.0819492,1.81515774 C21.784011,1.78587697 22.3845134,1.60095986 22.5599867,1.54171038 C24.6749156,0.542138312 26.7451441,0 31.584507,0 C38.4814149,0 40.9316069,1.60438802 41.1555698,1.81697398 C41.6848496,1.81697398 42.1126761,2.22306766 42.1126761,2.72546096 L42.1126761,3.63394795 C42.1126761,4.13634126 41.6848496,4.54243494 41.1555698,4.54243494 C41.1555698,4.54243494 38.9198864,4.54243494 38.9198864,5.45092193 C38.9198864,6.35940892 38.284251,4.13634126 38.284251,3.63394795 L38.284251,2.74908968 C37.1170031,2.31495973 35.0275135,1.50675891 31.584507,1.50675891 C27.7485169,1.50675891 25.8381023,2.16782367 24.1993345,2.82424264 L24.2176601,2.86718493 L24.2168512,3.49248026 L23.4986032,5.17669957 L22.6114266,4.83581846 C22.532192,4.80537402 22.3612283,4.75067895 22.1241699,4.6938588 C21.4632994,4.5354558 20.7838718,4.4872347 20.183013,4.60709709 C19.9625715,4.65107189 19.7580459,4.71706194 19.5703478,4.80619341 L18.7143816,5.2126628 L17.857937,3.58769357 L17.8959731,2.86536796 L17.9221249,2.80400473 C16.5088339,2.16399414 15.2056771,1.50675891 10.528169,1.50675891 C7.08534303,1.50675891 4.9959016,2.31465694 3.8284251,2.7487952 L3.8284251,3.63394795 C3.8284251,4.13634126 2.87131882,6.35940892 2.87131882,5.45092193 C2.87131882,4.54243494 0.957106274,4.54243494 0.957106274,4.54243494 C0.428783611,4.54243494 0,4.13634126 0,3.63394795 L0,2.72546096 C0,2.22306766 0.428783611,1.81697398 0.957106274,1.81697398 Z" id="Stuff" fill="#252C2F" fill-rule="nonzero"></path>
                                        </g>
                                    </g>
                                </g>
                            </g>
                        </g>
                    </g>
                </g>
            </g>
        </g>
    </g>
</svg>